<svg width="400" height="272" viewBox="0 0 400 272" fill="none" xmlns="http://www.w3.org/2000/svg">
<g clip-path="url(#clip0_2150_74357)">
<path d="M0 234H25.997V236.137L21.8422 238.748L30.3892 240.173L48.7889 240.766V238.748L34.0691 235.543L52.5876 234H58.2855M68.3757 234.475L91.9985 234M99.7146 234.475H108.143M0 253.943H10.9211L13.0579 251.45L15.7881 253.943L17.9249 255.011H25.997L26.9467 252.162L31.695 255.011H64.9332L65.6454 251.45L70.3937 253.943H113.959L121.557 255.367H129.985L135.802 250.619V254.893H141.618L143.399 250.619L145.773 254.893L150.878 253.943L172.601 255.367L192.425 254.893M204.534 255.367L224.833 256.436M228.75 254.893L231.124 258.335L233.854 256.436H245.369" stroke="black" stroke-width="2"/>
<path d="M400 0H373.579V2.13674L377.802 4.74831L369.115 6.1728L350.416 6.76634V4.74831L365.375 1.5432L346.555 0H340.764M330.51 0.474831L306.502 0M298.66 0.474831H290.094M400 19.9429H388.901L386.729 17.45L383.954 19.9429L381.783 21.0113H373.579L372.614 18.1623L367.788 21.0113H334.008L333.284 17.45L328.459 19.9429H284.183L276.462 21.3674H267.896L261.984 16.6191V20.8926H256.073L254.263 16.6191L251.85 20.8926L246.663 19.9429L224.585 21.3674L204.438 20.8926M192.132 21.3674L171.502 22.4358M167.521 20.8926L165.108 24.3351L162.333 22.4358H150.631" stroke="black" stroke-width="2"/>
<path d="M83 258.2C83 253.119 87.119 249 92.2 249V249C97.281 249 101.4 253.119 101.4 258.2V267.4H83V258.2Z" fill="#C4C4C4"/>
<path d="M84.5333 262.8C84.5333 258.566 87.9657 255.133 92.1999 255.133V255.133C96.4341 255.133 99.8666 258.566 99.8666 262.8V272H84.5333V262.8Z" fill="#C4C4C4"/>
<path d="M95.2666 262.033C95.2666 260.763 96.2963 259.733 97.5666 259.733V259.733C98.8369 259.733 99.8666 260.763 99.8666 262.033V262.033C99.8666 263.304 98.8369 264.333 97.5666 264.333V264.333C96.2963 264.333 95.2666 263.304 95.2666 262.033V262.033Z" fill="#0B0E11"/>
<path d="M86.0668 262.033C86.0668 260.763 87.0966 259.733 88.3668 259.733V259.733C89.6371 259.733 90.6668 260.763 90.6668 262.033V262.033C90.6668 263.304 89.6371 264.333 88.3668 264.333V264.333C87.0966 264.333 86.0668 263.304 86.0668 262.033V262.033Z" fill="#0B0E11"/>
<path d="M96.7999 268.933H99.8665V272H96.7999V268.933Z" fill="#0B0E11"/>
<path d="M90.6666 268.933H93.7332V272H90.6666V268.933Z" fill="#0B0E11"/>
<path d="M84.5333 268.933H87.5999V272H84.5333V268.933Z" fill="#0B0E11"/>
<path d="M92.2001 264.333H93.7335V267.4H92.2001V264.333Z" fill="#0B0E11"/>
<g opacity="0.4">
<path d="M96.7999 267.867C96.7999 266.762 97.6953 265.867 98.7999 265.867H110.133C111.238 265.867 112.133 266.762 112.133 267.867V272H96.7999V267.867Z" fill="#C4C4C4"/>
<path d="M109.067 268.933H112.134V272H109.067V268.933Z" fill="#0B0E11"/>
<path d="M102.933 268.933H106V272H102.933V268.933Z" fill="#0B0E11"/>
<path d="M96.8 268.933H99.8667V272H96.8V268.933Z" fill="#0B0E11"/>
</g>
<rect x="304" y="72" width="48" height="96" transform="rotate(-90 304 72)" fill="black" fill-opacity="0.17"/>
<rect x="352" y="72" width="36" height="48" transform="rotate(-90 352 72)" fill="#322C27" stroke="black" stroke-width="2"/>
<rect x="352" y="72" width="36" height="4" transform="rotate(-90 352 72)" fill="#322C27" stroke="black" stroke-width="2"/>
<rect x="396" y="72" width="36" height="4" transform="rotate(-90 396 72)" fill="#322C27" stroke="black" stroke-width="2"/>
<rect x="352" y="38" width="48" height="4" fill="#322C27" stroke="black" stroke-width="2"/>
<rect x="352" y="68" width="48" height="4" fill="#322C27" stroke="black" stroke-width="2"/>
<rect x="356" y="58" width="40" height="10" fill="#322C27" stroke="black" stroke-width="2"/>
<rect x="356" y="42" width="40" height="10" fill="#322C27" stroke="black" stroke-width="2"/>
<path d="M354 38C352.895 38 352 37.1046 352 36L352 32L400 32L400 36C400 37.1046 399.105 38 398 38L354 38Z" fill="#473F37" stroke="black" stroke-width="2"/>
<rect x="352" y="32" width="8" height="48" transform="rotate(-90 352 32)" fill="#322C27" stroke="black" stroke-width="2"/>
<rect x="352" y="24" width="8" height="48" transform="rotate(-90 352 24)" fill="#473F37" stroke="black" stroke-width="2"/>
<rect x="352" y="16" width="8" height="48" transform="rotate(-90 352 16)" fill="#322C27" stroke="black" stroke-width="2"/>
<rect x="352" y="16" width="8" height="15" transform="rotate(-90 352 16)" fill="#322C27" stroke="black" stroke-width="2"/>
<path d="M352 8L352 2C352 0.895432 352.895 1.86821e-06 354 1.81993e-06L398 -1.03375e-07C399.105 -1.51657e-07 400 0.89543 400 2L400 8L352 8Z" fill="#322C27" stroke="black" stroke-width="2"/>
<rect x="355" y="3" width="2" height="2" fill="black"/>
<rect x="395" y="3" width="2" height="2" fill="black"/>
<rect x="395" y="27" width="2" height="2" fill="black"/>
<rect x="355" y="27" width="2" height="2" fill="black"/>
<rect x="351" y="73" width="36" height="50" transform="rotate(-90 351 73)" fill="black" fill-opacity="0.38"/>
</g>
<defs>
<clipPath id="clip0_2150_74357">
<rect width="400" height="272" fill="white"/>
</clipPath>
</defs>
</svg>
