<svg width="24" height="24" viewBox="0 0 24 24" fill="none" xmlns="http://www.w3.org/2000/svg">
<path fill-rule="evenodd" clip-rule="evenodd" d="M11.9999 21.6C17.3018 21.6 21.5999 15.6 21.5999 12C21.5999 8.40002 17.3018 2.40002 11.9999 2.40002C6.69797 2.40002 2.3999 7.20002 2.3999 12C2.3999 16.8 6.69797 21.6 11.9999 21.6ZM16.1559 14.3992C17.4814 12.1034 15.9579 8.74224 14.399 7.84224C12.8402 6.94223 9.16757 7.30335 7.84209 9.59916C6.51661 11.895 7.52055 14.9561 9.59901 16.1561C11.6775 17.3561 14.8305 16.695 16.1559 14.3992Z" fill="white"/>
<path d="M10 0L11 1.25L14 0V5H10V0Z" fill="white"/>
<rect y="10" width="5" height="4" fill="white"/>
<rect x="19" y="10" width="5" height="4" fill="white"/>
<rect x="10" y="19" width="4" height="5" fill="white"/>
<path d="M18.7876 1.81757L21.6001 5.21168L18.7876 8.60579L15.3935 5.21168L18.7876 1.81757Z" fill="white"/>
<rect x="5.55933" y="2.16565" width="4.30862" height="4.8" transform="rotate(45 5.55933 2.16565)" fill="white"/>
<path d="M18.7875 15.3938L21.6 18L18.7875 22.182L15.3934 18.7879L18.7875 15.3938Z" fill="white"/>
<path d="M4.80005 14.9813L8.19416 18.3754L4.80005 21.7695L1.40594 18.3754L4.80005 14.9813Z" fill="white"/>
</svg>
