<svg width="124" height="124" viewBox="0 0 124 124" fill="none" xmlns="http://www.w3.org/2000/svg">
<path d="M45 17L50.5 24C50.5 24 34.6881 43.8712 28 58.5C17.8096 80.7893 15.5 120 15.5 120H43.5H88L87 33.5V17H45Z" fill="#B04129" stroke="black" stroke-width="2"/>
<path d="M62 17V24C62 24 49.0272 43.8712 44.1379 58.5C36.6884 80.7893 35 120 35 120H55.469H88L87 34V17H62Z" fill="#7D2D1C" stroke="black" stroke-width="2"/>
<path d="M110.562 81.634L90.6437 70.134L89.6437 71.8661L109.562 83.3661L110.562 81.634Z" fill="#B28C52" stroke="black" stroke-width="2"/>
<path d="M78.9798 38.3482L98.507 38.2455L98.507 54.6188L83.5789 54.7068L78.9798 38.3482Z" fill="#AD793C" stroke="black" stroke-width="2"/>
<path d="M85.9999 52L99 52L99 71.9999L85.9999 71.9999L85.9999 52Z" fill="#B28C52" stroke="black" stroke-width="2"/>
<path d="M86.5 54L86.5 50L93 52L99 50L98.9798 47L102 52L98.9798 57L99 54L93 52L86.5 54Z" fill="black"/>
<path d="M93 52L99 54L98.9798 57L102 52L98.9798 47L99 50L93 52ZM93 52L86.5 54L86.5 50L93 52Z" stroke="black" stroke-width="2"/>
<path d="M56.7575 123L48.9797 123L48.9797 118.385L49.8687 103L60.7576 103L56.7575 118.385L56.7575 123Z" fill="black" stroke="black" stroke-width="2"/>
<path d="M68.9944 123L83 123L76.7639 118.539L79.8718 103L68.9944 103L68.9944 111.547L68.9944 123Z" fill="black" stroke="black" stroke-width="2"/>
<path d="M37.9797 61.298L38.1305 47.7268L59.3812 48.1234L59.3011 57.1235L43.9797 63L37.9797 61.298Z" fill="#B28C52" stroke="black" stroke-width="2"/>
<path d="M46.7978 107.89L50.7428 69.1098H69.899L63.1162 107.89H46.7978Z" fill="#AD793C" stroke="black" stroke-width="2"/>
<path d="M54.9126 31.3482L37.4801 31.3483L34.9797 55.2877L49.9125 55.2877L54.9126 31.3482Z" fill="#B28C52" stroke="black" stroke-width="2"/>
<path d="M88 69.3551L70.1585 69.5292L66.9798 108L83.4798 108L88 79.0001L88 69.3551Z" fill="#AD793C" stroke="black" stroke-width="2"/>
<path d="M90 24H49.9797L53.9798 52H86.6643L90 24Z" fill="#B28C52" stroke="black" stroke-width="2"/>
<path d="M55.9999 22H53.6909C42.8679 22 34.0942 30.5066 34.0942 41L50.5968 40.9999L55.9999 40.9998L56 35.9998L55.9999 22Z" fill="#C1C1C1"/>
<path d="M32 41H34.0942M34.0942 41L50.5968 40.9999L55.9999 40.9998L56 35.9998L55.9999 22L53.6909 22C42.8679 22 34.0942 30.5066 34.0942 41Z" stroke="black" stroke-width="2"/>
<path d="M86.9797 35.9998L91.0862 40.9999L103.628 41C103.628 30.9624 95 22 86.9798 22L86.9797 35.9998Z" fill="#B28C52"/>
<path d="M105.98 41L103.628 41M103.628 41L91.0862 40.9999L86.9797 35.9998L86.9798 22C95 22 103.628 30.9624 103.628 41Z" stroke="black" stroke-width="2"/>
<path d="M69 5L53 5L57 11L73 10.9999V7H69V5Z" fill="#F27155" stroke="black" stroke-width="2"/>
<path d="M62 34L62 18L56 22L56.0001 38L60 34L62 34Z" fill="#F27155" stroke="black" stroke-width="2"/>
<path d="M81 34L81 24L87 17L86.9999 38L83 38L83 34L81 34Z" fill="#F27155"/>
<path d="M81 24L80 24L80 23.6301L80.2407 23.3492L81 24ZM81 34L81 35L80 35L80 34L81 34ZM83 38L83 39L82 39L82 38L83 38ZM86.9999 38L87.9999 38L87.9999 39L86.9999 39L86.9999 38ZM87 17L86.2407 16.3492L88 17L87 17ZM83 34L83 33L84 33L84 34L83 34ZM82 24L82 34L80 34L80 24L82 24ZM83 37L86.9999 37L86.9999 39L83 39L83 37ZM87.7593 17.6508L81.7593 24.6508L80.2407 23.3492L86.2407 16.3492L87.7593 17.6508ZM81 33L83 33L83 35L81 35L81 33ZM84 34L84 38L82 38L82 34L84 34ZM85.9999 38L86 17L88 17L87.9999 38L85.9999 38Z" fill="black"/>
<path d="M33.9999 61.9999L32.9999 53.9999L40.9999 57.9999L40.9999 64L33.9999 61.9999Z" fill="black" stroke="black" stroke-width="2"/>
<path d="M99.4999 73L96.4999 78.5001L93 78.5L89.5957 72.0114L96.4999 67L99.4999 73Z" fill="black" stroke="black" stroke-width="2"/>
<path d="M62.9797 19.5L66.5 28H70.5H78L78.9797 13.5L76.5 11H62.9797V19.5Z" fill="#B28C52" stroke="black" stroke-width="2"/>
<path d="M86.5 52H52.9797V75H68.9799L74.9799 61.5L79.4799 75H92.9799L86.5 57.5V52Z" fill="#B28C52" stroke="black" stroke-width="2"/>
<path d="M75 17L75 28" stroke="black" stroke-width="2"/>
<path d="M77 21L77 24" stroke="black" stroke-width="2"/>
<path d="M73 21L73 24" stroke="black" stroke-width="2"/>
<path d="M69 21L69 24" stroke="black" stroke-width="2"/>
<path d="M33 38L33 41" stroke="black" stroke-width="2"/>
<path d="M38 38L38 41" stroke="black" stroke-width="2"/>
<path d="M44 38L44 41" stroke="black" stroke-width="2"/>
<path d="M50 38L50 41" stroke="black" stroke-width="2"/>
<path d="M56 38L56 42" stroke="black" stroke-width="2"/>
<path d="M93 38L93 41" stroke="black" stroke-width="2"/>
<path d="M99 38L99 41" stroke="black" stroke-width="2"/>
<path d="M105 38L105 42" stroke="black" stroke-width="2"/>
<path d="M65 21L65 24" stroke="black" stroke-width="2"/>
<path d="M78 18L72 18" stroke="black" stroke-width="2"/>
<circle cx="85" cy="35" r="4" fill="#C1C1C1" stroke="black" stroke-width="2"/>
<circle cx="57.5" cy="34.5" r="4.5" fill="#B28C52" stroke="black" stroke-width="2"/>
<path d="M67.9797 93L74 93L78.5 97L83 93L85.9797 93" stroke="black" stroke-width="2"/>
<path d="M47.9797 93L52.4797 93L56.9797 97L61.4797 93L65.9797 93" stroke="black" stroke-width="2"/>
<path d="M55.3922 47.2647L56.0203 47.7715L56.6484 47.2646L59.454 45H71.0405V79.3816L56.0203 86.8822L41 79.3816V45H52.586L55.3922 47.2647Z" fill="#AD793C" stroke="black" stroke-width="2"/>
<path d="M56 48L56 87" stroke="black" stroke-width="2"/>
<path d="M106.798 89.726L114.798 75.8696" stroke="black" stroke-width="2"/>
<path d="M118.525 80.7274L103.071 84.8685" stroke="black" stroke-width="2"/>
<path d="M112.869 90.5254L108.727 75.0705" stroke="black" stroke-width="2"/>
<path d="M103.87 78.7978L117.726 86.7978" stroke="black" stroke-width="2"/>
<path d="M75 28L75 62" stroke="black" stroke-width="2"/>
<rect x="105.899" y="79.9695" width="8" height="8" transform="rotate(-15 105.899 79.9695)" fill="black"/>
</svg>
