<svg width="186" height="226" viewBox="0 0 186 226" fill="none" xmlns="http://www.w3.org/2000/svg">
<path d="M14.1562 10H75.1562L65.6562 56.5L14.1562 81V10Z" fill="black" fill-opacity="0.54"/>
<path d="M130.156 10H174.156V69.5L140.656 50.5L136.156 40.5L137.156 17L130.156 10Z" fill="black" fill-opacity="0.54"/>
<path d="M14.1562 81L66.1562 56L75.6562 10H130.656L137.656 16.5L136.656 56L174.156 70V75L160 89L148 107.5L136.656 141.5H174.156V190H14.1562V162.5L45.5 165L31.5 140L25.5 133.5L14.1562 81Z" fill="url(#paint0_linear_2157_74820)"/>
<path d="M158.156 10L158.156 39" stroke="black" stroke-width="2"/>
<path d="M77.6562 19.5L97.6562 1L113.906 8.75C113.906 8.75 124.768 29.0087 128.156 41C135.325 66.3699 125.656 105.5 125.656 105.5C125.656 105.5 117.243 130.298 113.906 147C110.63 163.399 108.656 190 108.656 190H78.6562L81.1562 136L87.1562 98L79.6562 37.5L77.6562 19.5Z" fill="url(#paint1_linear_2157_74820)"/>
<path d="M102.15 31.6868L98.8731 32.5061L95.5959 31.6868" stroke="black" stroke-width="2"/>
<path d="M117.716 19.8073C117.716 19.8073 114.232 24.3133 109.933 24.3133C105.635 24.3133 102.15 19.8073 102.15 19.8073C102.15 19.8073 105.635 15.3013 109.933 15.3013C114.232 15.3013 117.716 19.8073 117.716 19.8073Z" fill="black"/>
<circle cx="109.933" cy="19.8073" r="2.86747" transform="rotate(180 109.933 19.8073)" fill="#C4C4C4"/>
<path d="M94.7765 19.8073C94.7765 19.8073 91.2918 24.3133 86.9933 24.3133C82.6948 24.3133 79.2102 19.8073 79.2102 19.8073C79.2102 19.8073 82.6948 15.3013 86.9933 15.3013C91.2918 15.3013 94.7765 19.8073 94.7765 19.8073Z" fill="black"/>
<circle cx="86.9934" cy="19.8073" r="2.86747" transform="rotate(180 86.9934 19.8073)" fill="#C4C4C4"/>
<path d="M117.717 7.80729C117.717 7.80729 114.232 12.3133 109.934 12.3133C105.635 12.3133 102.15 7.80729 102.15 7.80729C102.15 7.80729 105.635 3.30127 109.934 3.30127C114.232 3.30127 117.717 7.80729 117.717 7.80729Z" fill="black"/>
<circle cx="109.934" cy="7.8073" r="2.86747" transform="rotate(180 109.934 7.8073)" fill="#C4C4C4"/>
<path d="M121.859 34.9639L123.497 31.2772L102.157 25.9999L99.157 23.9999L78.3914 26.7712L79.2106 32.5061L99.157 27.9999L102.157 29.4999L121.859 34.9639ZM121.859 34.9639L103.789 36.6025L81.2588 42.3374M83.7167 46.4338L98.0538 44.7832M98.0538 44.7832L108.448 47.2533M98.0538 44.7832L106.656 43.5663L118.126 40.2894V44.3858L113.62 48.4822L108.448 47.2533M88.2227 51.3495L93.5936 50.3775M108.448 47.2533L98.0538 49.5703M109.524 52.9882C108.664 52.3328 101.519 50.4365 98.0538 49.5703M98.0538 49.5703L93.5936 50.3775M90.2709 54.2169L100.512 57.4942M79.6203 35.7832L100.921 37.3284M105.018 56.2651L93.5936 50.3775" stroke="black" stroke-width="2"/>
<path d="M135.612 143.948L133.756 140.068L129.42 138.917L131.545 124.301L136.685 124.788L139.165 122.059L137.975 118.983L133.237 118.164C133.237 118.164 135.096 108.956 135.763 103.216L139.434 103.563L143.051 100.572L141.127 97.4263L136.721 97.0092L137.975 86.4998L143.051 86.4998L146.156 82.5002L157.656 83.3361M141.127 111L147.156 111.5M144.127 92.0002L150.156 92.5002M136.685 133L139.165 133" stroke="black" stroke-width="2"/>
<path d="M122.756 164.5L127.494 165.319L128.685 168.395L126.204 171.124L121.064 170.637L118.42 184.917L122.756 186.068L124.612 189.948" stroke="black" stroke-width="2"/>
<path d="M62.4821 159.001L65.1476 156.612L68.7578 156.81L68.7864 143.051L64.4541 142.814L62.446 139.808L65.873 136.736L69.4832 136.934C69.913 131.284 71.3762 122.191 71.3762 122.191L66.7027 121.573L65.4166 118.606L67.7408 115.836L72.7951 116.113L74.3073 101.712L70.0145 100.753L68.0459 97.0238L69.4832 84L65.4166 79.4998L30.6563 88.9998M62.4821 128.5L56.1562 128" stroke="black" stroke-width="2"/>
<path d="M62.4461 170.808L64.4542 173.814L68.7864 174.051L68.7578 187.81L65.1476 187.612L62.4822 190.001" stroke="black" stroke-width="2"/>
<path d="M79.1497 190C79.1497 190 79.4049 165.31 80.849 142.5C82.4507 117.202 90.6497 73.4999 90.6497 73.4999M120.584 30.0483L122.223 29.6386M108.156 190C108.156 190 108.674 169.518 114.608 142.018C123.84 99.2354 142.764 63.8622 120.584 23.5C117.032 17.0359 114.15 8.83932 114.15 8.83932M120.174 34.9639L118.126 44.3856L104.198 57.494H93.1382L89.23 52.8622L83.3068 44.3856L79.6202 30.0483L78.3913 25.5422L78.0726 19.3977M125.09 1.67917V5.06031L137.379 16.9398L135.483 52.8622L175.218 70.1333M77.6565 1.6789L65.6565 56L18.1565 80.332M78.0726 19.3977L80.849 52.8622L90.6497 73.4999M78.0726 19.3977C78.0726 19.3977 83.3579 12.7019 87.1565 9.51916L93.7227 4.41894C96.0352 2.73954 97.6442 1.67877 97.6442 1.67877L105.897 5.25904M82.7981 58.9999L90.6497 73.4999" stroke="black" stroke-width="2"/>
<path d="M94.7762 7.80729C94.7762 7.80729 91.2916 12.3133 86.9931 12.3133C82.6946 12.3133 79.21 7.80729 79.21 7.80729C79.21 7.80729 82.6946 3.30127 86.9931 3.30127C91.2916 3.30127 94.7762 7.80729 94.7762 7.80729Z" fill="black"/>
<circle cx="86.9931" cy="7.8073" r="2.86747" transform="rotate(180 86.9931 7.8073)" fill="#C4C4C4"/>
<path d="M14.1562 70.5V10H76.1562M130.156 10H174.156V24M14.1562 162.5V190H108.656H174.156V129C174.156 129 178.656 121.5 179.156 118" stroke="black" stroke-width="2"/>
<path d="M14.1562 70.5V17C14.1562 13.134 17.2903 10 21.1562 10H76.1562M130.156 10H167.156C171.022 10 174.156 13.134 174.156 17V24M14.1562 162.5V183C14.1562 186.866 17.2903 190 21.1563 190H108.656H167.156C171.022 190 174.156 186.866 174.156 183V130.939C174.156 129.67 174.502 128.43 175.121 127.322C176.473 124.905 178.804 120.462 179.156 118" stroke="black" stroke-width="2"/>
<path d="M18.1563 31L18.1562 67" stroke="black" stroke-width="2"/>
<path d="M18.1562 10L18.1563 29" stroke="black" stroke-width="2"/>
<path d="M22.1562 10L22.1562 27" stroke="black" stroke-width="2"/>
<path d="M26.1562 10L26.1562 23" stroke="black" stroke-width="2"/>
<path d="M30.1562 10L30.1562 20" stroke="black" stroke-width="2"/>
<path d="M34.1562 10L34.1562 16" stroke="black" stroke-width="2"/>
<path d="M38.1562 10L38.1562 12" stroke="black" stroke-width="2"/>
<path d="M22.1562 29L22.1563 54" stroke="black" stroke-width="2"/>
<path d="M26.1562 25L26.1563 55" stroke="black" stroke-width="2"/>
<path d="M30.1562 22L30.1563 65" stroke="black" stroke-width="2"/>
<path d="M34.1562 18L34.1563 67" stroke="black" stroke-width="2"/>
<path d="M42.1562 10V68" stroke="black" stroke-width="2"/>
<path d="M46.1562 10L46.1562 66" stroke="black" stroke-width="2"/>
<path d="M50.1562 10L50.1562 64" stroke="black" stroke-width="2"/>
<path d="M54.1562 10L54.1562 62" stroke="black" stroke-width="2"/>
<path d="M58.1562 10L58.1562 60" stroke="black" stroke-width="2"/>
<path d="M62.1562 10L62.1562 47" stroke="black" stroke-width="2"/>
<path d="M134.156 10L134.156 14" stroke="black" stroke-width="2"/>
<path d="M138.156 10L138.156 46" stroke="black" stroke-width="2"/>
<path d="M142.156 10L142.156 52" stroke="black" stroke-width="2"/>
<path d="M146.156 10L146.156 54" stroke="black" stroke-width="2"/>
<path d="M150.156 10L150.156 55" stroke="black" stroke-width="2"/>
<path d="M154.156 10L154.156 47" stroke="black" stroke-width="2"/>
<path d="M162.156 10L162.156 15" stroke="black" stroke-width="2"/>
<path d="M170.156 10L170.156 26" stroke="black" stroke-width="2"/>
<path d="M66.1562 10L66.1562 47" stroke="black" stroke-width="2"/>
<path d="M70.1562 10L70.1562 36" stroke="black" stroke-width="2"/>
<path d="M74.1562 10L74.1562 16" stroke="black" stroke-width="2"/>
<path d="M38.1562 14L38.1563 69" stroke="black" stroke-width="2"/>
<path d="M166.156 10L166.156 27" stroke="black" stroke-width="2"/>
<path d="M26.156 73.3425L45.6642 78L26.037 80.3149L28.3497 84.3207L36.9586 101.745L45.6642 96.7186L55.156 83.5L52.6227 101.588L49.5122 103.384L41.1002 116.772L28.4641 129.754L24.9616 133.134L11.9985 119.626L6.78254 114.19L14.7138 109.611L12.6997 90.5125L11.7009 86L12.4491 85.6806L10.5627 73.6174L12.156 70L17.2101 71.2067L20.2813 58.4087L20.8827 53.7959L49.5122 58.4087L36.9586 60.5L27.2043 62.232L28.1663 63.8983L37.3882 69.5046L45.6642 75.5L30.7337 70.8583L26.156 73.3425Z" fill="#252525"/>
<path d="M17.2025 71.2383L20.2813 58.4087L20.8827 53.7959L49.5122 58.4087L36.9586 60.5L27.2043 62.232L28.1663 63.8983M28.1663 63.8983L37.3882 69.5046L45.6642 75.5L30.7337 70.8583L26.156 73.3425L28.1663 63.8983ZM14.7138 109.611L6.78254 114.19L31.3672 139.809L60.156 190L58.156 190M24.795 133.295L28.4641 129.754L41.1002 116.772L49.5122 103.384L52.6227 101.588L55.156 83.5L45.6642 96.7186L36.9586 101.745L28.3497 84.3207L26.037 80.3149M11.7009 119.882L15.4559 116.648L12.6997 90.5125L11.7009 86L12.4491 85.6806L10.5627 73.6174L12.156 70L45.6642 78L26.037 80.3149M27.3223 115.84L31.1059 110.456L23.8 96.5451L19.5224 81.5968L20.7287 80.5449L26.037 80.3149M1.57162 119.382L26.1563 145" stroke="black" stroke-width="2"/>
<path d="M161.689 27.6519L145.674 32.0002L160.737 34.4713L158.424 38.4771L149.815 55.9012L141.11 50.8751L134.151 38.4771L134.151 55.7443L137.262 57.5401L145.674 70.9281L158.31 83.911L161.868 87.3443C165.89 82.6713 170.266 78.2643 174.727 73.7401L171.318 70.8041L174.074 44.6689L176.383 40.6699L174.325 39.837L176.211 27.7738L177.704 23.3036L169.976 25.4019L169.976 16.9544L170.157 14.5003L142.657 14.5004L157.157 19.5003L162.657 20.2553L162.316 23.157L142.657 22.0004L161.689 27.6519Z" fill="#252525"/>
<path d="M169.976 25.4019L169.976 16.9544L170.157 14.5003L142.657 14.5004L157.157 19.5003L162.657 20.2553L162.316 23.157M162.316 23.157L161.689 27.6519L142.657 22.0004L162.316 23.157ZM161.979 87.4512L158.31 83.911L145.674 70.9281L137.262 57.5401L134.151 55.7443L134.151 38.4771L141.11 50.8751L149.815 55.9012L158.424 38.4771L160.737 34.4713M175.073 74.0384L171.318 70.8041L174.074 44.6689L176.383 40.6699L174.325 39.837L176.211 27.7738L177.704 23.3036L145.674 32.0002L160.737 34.4713M159.452 69.996L155.668 64.6123L162.974 50.7015L167.252 35.7532M167.252 35.7532L166.045 34.7013L160.737 34.4713M167.252 35.7532L172.06 31.0004L169.157 32.0002M174.325 70.8041L179.992 68.3468C168.342 80.4867 156.556 90.8244 149.336 106.07C134.505 137.386 123.657 190 123.657 190M184.656 74.0384C173.006 86.1783 161.22 96.516 154 111.762" stroke="black" stroke-width="2"/>
<path d="M112.09 164.63C107.236 164.63 103.596 163.393 101.17 160.92C98.743 158.447 97.5296 154.597 97.5296 149.37C97.5296 147.223 97.6696 145.193 97.9496 143.28C98.2763 141.32 98.6963 139.873 99.2096 138.94C99.6763 138.24 100.633 137.307 102.08 136.14C103.573 134.973 105.066 133.947 106.56 133.06C108.053 132.173 109.08 131.73 109.64 131.73C114.353 131.73 117.9 133.013 120.28 135.58C122.706 138.1 123.92 141.763 123.92 146.57C123.92 148.81 123.756 150.91 123.43 152.87C123.15 154.83 122.8 156.44 122.38 157.7C121.633 158.727 119.93 160.15 117.27 161.97C114.656 163.743 112.93 164.63 112.09 164.63ZM112.44 160.64C112.766 160.547 113.956 159.963 116.01 158.89C116.803 155.39 117.2 151.587 117.2 147.48C117.2 143.84 116.523 140.993 115.17 138.94C113.863 136.887 111.903 135.86 109.29 135.86C108.123 135.86 107.19 136.047 106.49 136.42C105.836 136.793 105.3 138.03 104.88 140.13C104.46 142.23 104.25 144.983 104.25 148.39C104.25 152.963 105.02 156.16 106.56 157.98C108.146 159.753 110.106 160.64 112.44 160.64Z" fill="white"/>
<path d="M82.8696 162.984V182H103.723V165.625L106.723 162.625L99.8696 160L95.8696 160.5L82.8696 162.984Z" fill="#0C0C0C"/>
<path d="M88.8395 206.874C86.8848 204.72 87.5506 200.931 89.201 199.434C91.3553 197.479 94.6863 197.641 96.6409 199.795C98.5956 201.95 98.0283 205.649 96.2794 207.235C94.1251 209.19 90.7941 209.028 88.8395 206.874Z" fill="white"/>
<path fill-rule="evenodd" clip-rule="evenodd" d="M76.6306 188.018L88.6906 188.536L93.5668 182.538L99.2431 188.989L111.303 189.507L115.32 194.149L116.212 213.805L112.008 216.852L99.446 216.313L92.712 223.97L86.3244 216.742L75.0178 216.257L70.9872 211.862L72.1047 192.293L76.6306 188.018ZM108.222 204.48C108.296 203.493 101.886 196.161 93.6411 195.656C84.9487 195.123 77.553 202.601 77.553 202.601C77.553 202.601 82.9186 210.613 91.163 211.118C100.067 211.664 108.149 205.467 108.222 204.48Z" fill="white"/>
<path d="M88.38 182.27C86.3 182.27 84.74 181.74 83.7 180.68C82.66 179.62 82.14 177.97 82.14 175.73C82.14 174.81 82.2 173.94 82.32 173.12C82.46 172.28 82.64 171.66 82.86 171.26C83.06 170.96 83.47 170.56 84.09 170.06C84.73 169.56 85.37 169.12 86.01 168.74C86.65 168.36 87.09 168.17 87.33 168.17C89.35 168.17 90.87 168.72 91.89 169.82C92.93 170.9 93.45 172.47 93.45 174.53C93.45 175.49 93.38 176.39 93.24 177.23C93.12 178.07 92.97 178.76 92.79 179.3C92.47 179.74 91.74 180.35 90.6 181.13C89.48 181.89 88.74 182.27 88.38 182.27ZM88.53 180.56C88.67 180.52 89.18 180.27 90.06 179.81C90.4 178.31 90.57 176.68 90.57 174.92C90.57 173.36 90.28 172.14 89.7 171.26C89.14 170.38 88.3 169.94 87.18 169.94C86.68 169.94 86.28 170.02 85.98 170.18C85.7 170.34 85.47 170.87 85.29 171.77C85.11 172.67 85.02 173.85 85.02 175.31C85.02 177.27 85.35 178.64 86.01 179.42C86.69 180.18 87.53 180.56 88.53 180.56ZM97.6838 182.27C97.5838 182.27 97.3838 182.13 97.0838 181.85C96.8038 181.57 96.6638 181.38 96.6638 181.28V170.15H95.2538V168.98L96.6638 168.41V167.27C96.6638 166.87 96.9038 166.3 97.3838 165.56C97.8838 164.8 98.4338 164.12 99.0338 163.52C99.6538 162.92 100.114 162.62 100.414 162.62C100.694 162.62 101.084 162.64 101.584 162.68C102.084 162.72 102.574 162.76 103.054 162.8C103.194 162.9 103.334 163.05 103.474 163.25C103.634 163.45 103.714 163.6 103.714 163.7C103.714 163.76 103.624 164 103.444 164.42C103.264 164.82 103.154 165.08 103.114 165.2C102.654 165.08 102.074 164.94 101.374 164.78C100.674 164.62 100.214 164.54 99.9938 164.54C99.8538 164.54 99.7238 164.72 99.6038 165.08C99.4838 165.42 99.4238 165.8 99.4238 166.22L99.3938 168.56H102.244V170.18H99.3938V180.11L100.924 180.56V181.79C98.9438 182.11 97.8638 182.27 97.6838 182.27Z" fill="white"/>
<path d="M125.21 213.63C124.977 213.63 124.51 213.303 123.81 212.65C123.157 211.997 122.83 211.553 122.83 211.32V185.56L120.38 184.72V182.13C123.927 181.43 125.91 181.08 126.33 181.08C126.563 181.08 127.077 181.453 127.87 182.2C128.71 182.947 129.13 183.413 129.13 183.6L128.99 186.05C132.35 182.503 134.17 180.73 134.45 180.73C135.197 180.73 136.76 181.103 139.14 181.85C139.28 182.177 139.373 182.55 139.42 182.97C139.513 183.39 139.56 183.74 139.56 184.02C139.56 184.3 139.28 184.953 138.72 185.98C138.207 187.007 137.857 187.567 137.67 187.66C136.13 187.053 134.893 186.75 133.96 186.75C133.353 186.75 131.767 187.497 129.2 188.99V208.59L132.77 209.64V212.51C128.15 213.257 125.63 213.63 125.21 213.63Z" fill="white"/>
<path d="M140.81 212.34L145.15 210.94V176.85L140.81 175.45V172.79H158.45C162.323 172.79 165.17 173.653 166.99 175.38C168.81 177.06 169.72 180.023 169.72 184.27C169.72 187.677 168.95 190.383 167.41 192.39C165.916 194.35 163.956 195.61 161.53 196.17V196.59C165.216 202.75 168.18 207.557 170.42 211.01L174.2 212.06V215H164.96C164.306 213.693 163.093 211.36 161.32 208C158.426 202.68 156.49 198.947 155.51 196.8H151.66V210.59L156.35 211.78V215H140.81V212.34ZM157.33 192.81C159.29 192.81 160.69 192.343 161.53 191.41C162.416 190.43 162.86 188.517 162.86 185.67C162.86 182.45 162.533 180.093 161.88 178.6C161.226 177.107 160.223 176.36 158.87 176.36L151.66 177.06V192.81H157.33Z" fill="white"/>
<path fill-rule="evenodd" clip-rule="evenodd" d="M22.5077 210.27L18.1124 211.485L18 214.143L32.8967 214.773L33.0239 211.765L28.4671 210.171L30.2925 180.262L30.782 180.283C32.3125 187.167 33.3782 191.789 33.979 194.15L38.546 212.069C39.0897 212.466 39.4548 212.668 39.6413 212.676C40.1562 212.651 41.0936 212.574 42.4536 212.444C43.8136 212.315 45.2445 212.165 46.7464 211.995L52.8798 194.529C53.888 191.676 55.3108 187.298 57.1485 181.397L57.638 181.418L56.9317 211.375L52.2567 212.579L52.1295 215.586L67.5857 216.24L67.6981 213.582L63.4211 212L63.5326 177.884L67.9279 176.669L68.0403 174.011L54.4024 173.434L43.5442 206.535L42.705 206.5L34.6101 172.597L21.0423 172.024L20.9299 174.681L25.2068 176.263L24.5588 184.428L25.8696 185.5L24.4008 186.418L22.5077 210.27Z" fill="white"/>
<path fill-rule="evenodd" clip-rule="evenodd" d="M40.1496 159.94L35.8096 161.34V164H53.9396C57.8129 164 60.8929 163.067 63.1796 161.2C65.5129 159.333 66.6796 156.207 66.6796 151.82C66.6796 149.207 65.8396 147.06 64.1596 145.38C62.5262 143.653 60.3329 142.557 57.5796 142.09V141.67C59.3529 140.83 60.8462 139.78 62.0596 138.52C63.2729 137.26 63.8796 135.323 63.8796 132.71C63.8796 128.697 62.9929 125.873 61.2196 124.24C59.4462 122.607 56.7396 121.79 53.0996 121.79H35.8096V124.45L40.1496 125.85V140.865L43.3696 143.5L40.1496 145.513V159.94ZM57.0196 133.76C57.0196 136.607 56.5762 138.52 55.6896 139.5C54.8496 140.433 53.4496 140.9 51.4896 140.9H46.6596V125.92L54.0096 125.08C55.1296 124.94 55.8996 125.57 56.3196 126.97C56.7862 128.323 57.0196 130.587 57.0196 133.76ZM58.9096 158.68C58.3029 160.173 57.2996 160.85 55.8996 160.71L46.6596 159.73V144.89H53.8696C55.3162 144.89 56.4362 145.007 57.2296 145.24C58.0229 145.473 58.6529 146.033 59.1196 146.92C59.5862 147.76 59.8196 149.113 59.8196 150.98C59.8196 154.573 59.5162 157.14 58.9096 158.68ZM71.9215 160.92C74.3482 163.393 77.9882 164.63 82.8415 164.63C83.6815 164.63 85.4082 163.743 88.0215 161.97C90.6815 160.15 92.3849 158.727 93.1315 157.7C93.5515 156.44 93.9015 154.83 94.1815 152.87C94.5082 150.91 94.6715 148.81 94.6715 146.57C94.6715 141.763 93.4582 138.1 91.0315 135.58C88.6515 133.013 85.1049 131.73 80.3915 131.73C79.8315 131.73 78.8049 132.173 77.3115 133.06C75.8182 133.947 74.3249 134.973 72.8315 136.14C71.3849 137.307 70.4282 138.24 69.9615 138.94C69.4482 139.873 69.0282 141.32 68.7015 143.28C68.4215 145.193 68.2815 147.223 68.2815 149.37C68.2815 154.597 69.4949 158.447 71.9215 160.92ZM86.7615 158.89C84.7082 159.963 83.5182 160.547 83.1915 160.64C80.8582 160.64 78.8982 159.753 77.3115 157.98C75.7715 156.16 75.0015 152.963 75.0015 148.39C75.0015 144.983 75.2115 142.23 75.6315 140.13C76.0515 138.03 76.5882 136.793 77.2415 136.42C77.9415 136.047 78.8749 135.86 80.0415 135.86C82.6549 135.86 84.6149 136.887 85.9215 138.94C87.2749 140.993 87.9515 143.84 87.9515 147.48C87.9515 151.587 87.5549 155.39 86.7615 158.89Z" fill="white"/>
<path d="M64.2026 56.3026L67.9473 78.8197L71.2547 113.984L74.4008 117.626L94.2572 114.816L107.362 112.144L127.139 108.855L123.314 85.8592L120.765 70.5284L116.941 47.5322L112.891 43.5481L83.5674 53.0822L64.2026 56.3026Z" fill="black" stroke="#161919" stroke-width="2"/>
<rect x="69.8739" y="63.149" width="38.0967" height="38.0967" transform="rotate(-9.44199 69.8739 63.149)" fill="#FF4B3C" stroke="#161919" stroke-width="2"/>
<rect x="65.4192" y="83.1999" width="37.8054" height="37.8054" transform="rotate(-54.442 65.4192 83.1999)" fill="url(#paint2_linear_2157_74820)" fill-opacity="0.5" stroke="#161919" stroke-width="2"/>
<rect x="69.8739" y="63.1491" width="38.0967" height="38.0967" transform="rotate(-9.44199 69.8739 63.1491)" stroke="#161919" stroke-width="2"/>
<path d="M102.781 63.4374L80.7973 94.1917" stroke="#161919" stroke-width="2"/>
<path d="M89.4872 58.8739L88.528 53.1057L86.5551 53.4338L87.5143 59.202L89.4872 58.8739Z" fill="#161919"/>
<path d="M97.1615 105.02L95.7911 96.7794L93.8182 97.1075L95.1886 105.348L97.1615 105.02Z" fill="#161919"/>
<path d="M111.731 76.5123L117.499 75.553L117.171 73.5801L111.402 74.5394L111.731 76.5123Z" fill="#161919"/>
<path d="M66.4089 84.0494L73.8252 82.816L73.4971 80.8431L66.0808 82.0765L66.4089 84.0494Z" fill="#161919"/>
<path d="M107.166 89.8064L76.412 67.8226" stroke="#161919" stroke-width="2"/>
<rect x="85.2511" y="74.141" width="11.3656" height="11.3656" transform="rotate(-9.44199 85.2511 74.141)" fill="#C4C4C4" stroke="#161919" stroke-width="2"/>
<rect x="91.053" y="74.383" width="6.35349" height="6.35349" transform="rotate(35.558 91.053 74.383)" fill="#FF4B3C" stroke="#161919" stroke-width="2"/>
<path d="M60.1748 57.3353L64.7929 80.1371M73.0192 118.689L71.0462 119.018L68.0059 115.975L67.4307 115.564L66.137 89.0822M76.391 112.61L117.524 104.093L122.019 103.873L118.424 81.5218M115.768 68.1355C115.729 67.3365 113.436 54.5665 112.295 48.2813" stroke="#161919" stroke-width="2"/>
<path fill-rule="evenodd" clip-rule="evenodd" d="M127.285 163.94L123.051 165.634L123.234 168.288L138.667 167.226L138.461 164.223L133.755 163.144L131.464 129.832L135.977 128.119L135.771 125.116L120.337 126.177L120.52 128.831L124.946 129.93L127.285 163.94ZM144.205 158.987C147.996 163.778 149.968 166.262 150.12 166.439L159.548 165.79L159.346 162.857L155.777 161.98C154.815 161.025 153.438 159.557 151.648 157.576L149.37 159L148.245 153.75C145.092 150.121 142.504 147.087 140.482 144.649L150.784 128.153L155.018 126.458L154.836 123.805L139.402 124.866L139.609 127.869L144.244 128.953L134.616 145.052L134.75 147.007C136.086 148.74 139.237 152.733 144.205 158.987Z" fill="white"/>
<defs>
<linearGradient id="paint0_linear_2157_74820" x1="94.1563" y1="10" x2="94.1563" y2="190" gradientUnits="userSpaceOnUse">
<stop stop-opacity="0"/>
<stop offset="1" stop-color="#31462F"/>
</linearGradient>
<linearGradient id="paint1_linear_2157_74820" x1="103.156" y1="1" x2="103.156" y2="190" gradientUnits="userSpaceOnUse">
<stop stop-color="#282828"/>
<stop offset="1" stop-color="#080808"/>
</linearGradient>
<linearGradient id="paint2_linear_2157_74820" x1="84.3219" y1="83.1999" x2="84.3219" y2="121.005" gradientUnits="userSpaceOnUse">
<stop stop-color="#3366FF"/>
<stop offset="1" stop-color="#33FFE7"/>
</linearGradient>
</defs>
</svg>
