<svg width="124" height="124" viewBox="0 0 124 124" fill="none" xmlns="http://www.w3.org/2000/svg">
<path d="M101.963 62L92.5978 62L88.4148 59.5029L93.1047 54L102.47 54L101.963 62Z" fill="#C1C1C1" stroke="black" stroke-width="2"/>
<path d="M93.2955 52.4624L70.0676 50.023L67.5672 73.9624L93.2955 85.1755L93.2955 52.4624Z" fill="#54609F" stroke="black" stroke-width="2"/>
<path d="M80 64H48.33L42.5 70L31 123H56.875H86.5L80 64Z" fill="#54609F" stroke="black" stroke-width="2"/>
<path d="M80 64H59.9999L60 123H56.875H86.5L80 64Z" fill="#263464" stroke="black" stroke-width="2"/>
<path d="M70.4142 77L73 74.4142L75.5858 77L73 79.5858L70.4142 77Z" fill="black" stroke="black" stroke-width="2"/>
<path d="M80 75.4142V78.5858L78.4142 77L80 75.4142Z" stroke="black" stroke-width="2"/>
<path d="M62.4142 77L65 74.4142L67.5858 77L65 79.5858L62.4142 77Z" fill="black" stroke="black" stroke-width="2"/>
<path d="M54.4142 77L57 74.4142L59.5858 77L57 79.5858L54.4142 77Z" stroke="black" stroke-width="2"/>
<path d="M79 33H39L48.2632 60H83L79 33Z" fill="#54609F" stroke="black" stroke-width="2"/>
<path d="M80 64H39L48.2632 60H80V64Z" fill="#2A3EA4" stroke="black" stroke-width="2"/>
<path d="M56 21V29H73V21H56Z" fill="black" stroke="black" stroke-width="2"/>
<path d="M37.3304 33.0001L25.3304 56.4998L25.3304 66.5L56.8307 86L56.8304 52.9999L46.3303 52.9999L49.8303 44.4999L43.33 33.0001L37.3304 33.0001Z" fill="#263464" stroke="black" stroke-width="2"/>
<path d="M62.3305 56.9863L69.8303 56.9863L86.8303 43.9863L74.3304 43.9864L65.3303 49.4862L56.3303 43.9864L40.8303 43.9864L62.3305 56.9863Z" fill="white" stroke="black" stroke-width="2"/>
<path d="M67.8303 57.5L62.3301 62.5L57.0646 62.5L57.0646 53.9996L67.8303 53.9998L67.8303 57.5Z" fill="#C1C1C1" stroke="black" stroke-width="2"/>
<path d="M35.8303 23.5L90.8303 26L70 16.5L63.8303 2.5L57.5 16.5L35.8303 23.5Z" fill="#263464" stroke="black" stroke-width="2"/>
<rect width="3.3449" height="124.854" transform="matrix(0.89372 0.0772275 -0.0772344 0.893719 105.827 12.0935)" fill="black"/>
<path d="M103.935 32.0045L110.909 32.6071L113.4 32.8224L112.078 30.7007L112.594 24.7229L114.759 22.9025L112.938 20.7378L113.283 16.7526L116.616 13.0258" stroke="black" stroke-width="3"/>
<path d="M106.924 32.2628L99.95 31.6601L97.4593 31.4449L99.1259 29.5815L99.6424 23.6038L97.822 21.439L99.9868 19.6186L100.331 15.6335L97.6867 11.39" stroke="black" stroke-width="3"/>
<path d="M103.573 62H98.4558L96.085 59.5029L98.4592 54L102.5 48.5L103.573 62Z" fill="#C1C1C1" stroke="black" stroke-width="2"/>
<path d="M75.8303 33L79.8303 26H70.3303L66 30.5L60.8303 26H45.8303L51.0935 33H62L66 40L70.3303 33H75.8303Z" fill="#54609F" stroke="black" stroke-width="2"/>
<path d="M106.285 63H102.334L100.413 59.8786L102.048 53H106L106.285 63Z" fill="#C1C1C1" stroke="black" stroke-width="2"/>
<path d="M59.6172 23.1933L56.4476 23.0825L58.0878 21.5531L59.6172 23.1933Z" stroke="black" stroke-width="2"/>
<path d="M67.6124 23.4727L64.4427 23.362L66.0829 21.8325L67.6124 23.4727Z" stroke="black" stroke-width="2"/>
<path d="M75.6075 23.7522L72.4378 23.6414L74.078 22.112L75.6075 23.7522Z" stroke="black" stroke-width="2"/>
<path d="M60 118L66 124H54L60 118Z" fill="black"/>
</svg>
