<svg width="124" height="124" viewBox="0 0 124 124" fill="none" xmlns="http://www.w3.org/2000/svg">
<path d="M82.5 55.5C78.4954 58.0443 70.0332 60.3435 70.0332 60.3435L70.0332 50L64.0001 35L67.0001 23.5L71.0001 23.5L90.0001 40C90.0001 40 88.7041 51.5584 82.5 55.5Z" fill="#364C3C" stroke="black" stroke-width="2"/>
<path d="M59.6206 123L51.6206 123L51.6206 118.885L52.5096 103.5L63.3984 103.5L59.6206 119L59.6206 123Z" fill="black" stroke="black" stroke-width="2"/>
<path d="M73.6206 123L88.1206 123L81.3901 119.039L84.498 103.5L73.6205 103.5L73.6205 112.047L73.6206 123Z" fill="black" stroke="black" stroke-width="2"/>
<path d="M90.9999 65.0001L87.4875 50.2917L80 57.5L82.7773 62.5838L89.1411 68.1094L90.9999 65.0001Z" fill="#6C6952" stroke="black" stroke-width="2"/>
<path d="M83.8317 70.7801L83.8319 66.78L86.8317 63.7801L91.8318 64.78L92.9999 69.0001L89.4999 75.0001L83.8317 70.7801Z" fill="#6C6952" stroke="black" stroke-width="2"/>
<path d="M48 12L54 20.5C54 20.5 24.9345 47.4181 18 71C13.4168 86.5858 12 104 12 104H36L64 104.5L76 104V12H48Z" fill="black"/>
<path d="M71 51H50.6471L43 77H71V51Z" fill="#364C3C" stroke="black" stroke-width="2"/>
<path d="M93.8287 92.5599L83.6206 59L71.2991 70.4439L71.2991 89.0909L71.2991 109.103L84.8816 112.484L93.8287 92.5599Z" fill="#6C6952" stroke="black" stroke-width="2"/>
<path d="M67.5 110L71 51L54 51L50 73.833L50 110L67.5 110Z" fill="#6C6952" stroke="black" stroke-width="2"/>
<path d="M52.7843 54H83.5123L84 48.5763L79.6103 22H61.1936L52.4142 25.7966L49 38.2712L52.7843 54Z" fill="#364C3C" stroke="black" stroke-width="2"/>
<path d="M52.7843 54H57V48.5L82.5 26L61.1936 22L52.4142 25.7966L49 38.2712L52.7843 54Z" fill="#364C3C" stroke="black" stroke-width="2"/>
<path d="M84 54H57V77H84V54Z" fill="#364C3C" stroke="black" stroke-width="2"/>
<path d="M66 74H63V77H66V74Z" fill="black" stroke="black" stroke-width="2"/>
<path d="M75 74H72V77H75V74Z" fill="black" stroke="black" stroke-width="2"/>
<path d="M84 74H81V77H84V74Z" fill="black" stroke="black" stroke-width="2"/>
<path d="M81.5 3.5L63.5 6.5L64.5 9.5L58.5 21L62.5 27L77 33.5L84.5 27L82.5 21.5L81.5 3.5Z" fill="#6C6952" stroke="black" stroke-width="2"/>
<path d="M39.2045 67.462L34.9565 71.9995L54.2405 90.0537L54.9824 82.2337L39.2045 67.462Z" fill="white"/>
<rect width="3.4645" height="21.4972" transform="matrix(-0.613087 0.654846 0.654851 0.613082 24.0649 55.4172)" fill="white"/>
<rect width="3.46449" height="17.3225" transform="matrix(0.65485 0.613083 0.613086 -0.654848 29.5015 73.2784)" fill="white"/>
<path d="M40.5 55.5C44.5047 58.0443 52.9668 58.5 52.9668 58.5L52.9668 50L59 35L56 23.5L52 23.5L32.9999 40C32.9999 40 34.296 51.5584 40.5 55.5Z" fill="#364C3C" stroke="black" stroke-width="2"/>
<path d="M29.4598 59.1295L34.0639 43.5711C34.0639 43.5711 38.0988 42.7414 40.4975 43.8826C43.3058 45.2187 45.5606 50.0601 45.5606 50.0601L40.6842 56.065L34.7241 63.4045L29.4598 59.1295Z" fill="#6C6952" stroke="black" stroke-width="2"/>
<path d="M28.5001 67L30.4999 58.5L34.0001 59.5L36.7927 63.8326L34.9919 66.4429L32.7909 69.6332L28.5001 67Z" fill="#6C6952" stroke="black" stroke-width="2"/>
<path d="M75.5 54H84V60H75.5L79.5 57L75.5 54Z" fill="#6C6952" stroke="black" stroke-width="2"/>
<path d="M61.5 54H53V60H61.5L57.5 57L61.5 54Z" fill="#6C6952" stroke="black" stroke-width="2"/>
<path d="M72.5 54H64V60H72.5L68.5 57L72.5 54Z" fill="#6C6952" stroke="black" stroke-width="2"/>
<path d="M84 27L79 31L70 22L73.5 11L81.5 4.5L82.5 22L84 27Z" fill="black" stroke="black" stroke-width="2"/>
</svg>
