<svg width="54" height="112" viewBox="0 0 54 112" fill="none" xmlns="http://www.w3.org/2000/svg">
<rect x="9" y="25" width="32" height="8" transform="rotate(90 9 25)" fill="#FFFEDC" stroke="black" stroke-width="2"/>
<rect x="9" y="49" width="19" height="8" transform="rotate(90 9 49)" fill="#FFFEDC" stroke="black" stroke-width="2"/>
<rect x="16" y="59" width="4" height="52" fill="#FFFEDC" stroke="black" stroke-width="2"/>
<rect x="12" y="84" width="8" height="27" fill="#FFFEDC" stroke="black" stroke-width="2"/>
<rect x="12" y="55" width="28" height="8" fill="#FFFEDC" stroke="black" stroke-width="2"/>
<rect x="20" y="59" width="20" height="4" fill="#FFFEDC" stroke="black" stroke-width="2"/>
<rect x="32" y="59" width="8" height="52" fill="#FFFEDC" stroke="black" stroke-width="2"/>
<rect x="32" y="84" width="8" height="27" fill="#FFFEDC" stroke="black" stroke-width="2"/>
<rect x="12" y="80" width="4" height="8" fill="#FFFEDC" stroke="black" stroke-width="2"/>
<rect x="8" y="107" width="8" height="4" fill="#FFFEDC" stroke="black" stroke-width="2"/>
<rect x="12" y="103" width="4" height="4" fill="#FFFEDC" stroke="black" stroke-width="2"/>
<rect x="31" y="103" width="4" height="4" fill="#FFFEDC" stroke="black" stroke-width="2"/>
<rect x="29" y="107" width="4" height="4" fill="#FFFEDC" stroke="black" stroke-width="2"/>
<rect x="36" y="107" width="6" height="4" fill="#FFFEDC" stroke="black" stroke-width="2"/>
<rect x="31" y="80" width="4" height="8" fill="#FFFEDC" stroke="black" stroke-width="2"/>
<rect x="22" y="47" width="8" height="8" fill="#FFFEDC" stroke="black" stroke-width="2"/>
<rect x="22" y="39" width="8" height="8" fill="#FFFEDC" stroke="black" stroke-width="2"/>
<rect x="22" y="31" width="8" height="8" fill="#FFFEDC" stroke="black" stroke-width="2"/>
<rect x="22" y="23" width="8" height="8" fill="#FFFEDC" stroke="black" stroke-width="2"/>
<rect x="22" y="15" width="8" height="8" fill="#FFFEDC" stroke="black" stroke-width="2"/>
<rect x="6" y="33" width="16" height="4" fill="#FFFEDC" stroke="black" stroke-width="2"/>
<rect x="12" y="41" width="28" height="4" fill="#FFFEDC" stroke="black" stroke-width="2"/>
<rect x="24" y="33" width="21" height="4" fill="#FFFEDC" stroke="black" stroke-width="2"/>
<rect x="30" y="25" width="21" height="4" fill="#FFFEDC" stroke="black" stroke-width="2"/>
<rect x="2" y="25" width="30" height="4" fill="#FFFEDC" stroke="black" stroke-width="2"/>
<path fill-rule="evenodd" clip-rule="evenodd" d="M34 1H13V17H15V23H27V17H34V1Z" fill="#FFFEDC"/>
<path d="M13 1V0H12V1H13ZM34 1H35V0H34V1ZM13 17H12V18H13V17ZM15 17H16V16H15V17ZM15 23H14V24H15V23ZM27 23V24H28V23H27ZM27 17V16H26V17H27ZM34 17V18H35V17H34ZM13 2H34V0H13V2ZM14 17V1H12V17H14ZM15 16H13V18H15V16ZM16 23V17H14V23H16ZM27 22H15V24H27V22ZM26 17V23H28V17H26ZM34 16H27V18H34V16ZM33 1V17H35V1H33Z" fill="black"/>
<rect x="21" y="6" width="4" height="4" fill="black" fill-opacity="0.54" stroke="black" stroke-width="2"/>
<rect x="13" y="6" width="4" height="4" fill="black" fill-opacity="0.54" stroke="black" stroke-width="2"/>
<rect x="16" y="20" width="2" height="2" fill="#5A5A5A"/>
<rect x="20" y="20" width="2" height="2" fill="#5A5A5A"/>
<rect x="18" y="12" width="2" height="4" fill="black"/>
<rect x="24" y="20" width="2" height="2" fill="#5A5A5A"/>
<rect x="51" y="25" width="27" height="6" transform="rotate(90 51 25)" fill="#FFFEDC" stroke="black" stroke-width="2"/>
<rect x="8" y="20" width="2" height="4" fill="black"/>
<rect x="44" y="20" width="2" height="4" fill="black"/>
<rect x="19" y="41" width="2" height="4" fill="black"/>
<rect x="19" y="25" width="2" height="4" fill="black"/>
<rect x="53" y="48" width="20" height="8" transform="rotate(90 53 48)" fill="#FFFEDC" stroke="black" stroke-width="2"/>
<rect x="48" y="67" width="2" height="4" fill="black"/>
<rect x="4" y="67" width="2" height="4" fill="black"/>
<rect x="4" y="48" width="2" height="4" fill="black"/>
<rect x="48" y="45" width="2" height="4" fill="black"/>
<rect x="52" y="67" width="2" height="4" fill="black"/>
<rect x="8" y="67" width="2" height="4" fill="black"/>
<rect x="44" y="67" width="2" height="4" fill="black"/>
<rect y="67" width="2" height="4" fill="black"/>
</svg>
